<mxfile>
    <diagram id="GM7K7OcswheHJNGOjh1S" name="Page-1">
        <mxGraphModel dx="722" dy="485" grid="1" gridSize="10" guides="1" tooltips="1" connect="1" arrows="1" fold="1" page="1" pageScale="1" pageWidth="827" pageHeight="1169" math="0" shadow="0">
            <root>
                <mxCell id="0"/>
                <mxCell id="1" parent="0"/>
                <mxCell id="IStR7--GfUocLLkQiMT1-4" value="" style="edgeStyle=orthogonalEdgeStyle;rounded=0;orthogonalLoop=1;jettySize=auto;html=1;" parent="1" source="IStR7--GfUocLLkQiMT1-1" target="IStR7--GfUocLLkQiMT1-3" edge="1">
                    <mxGeometry relative="1" as="geometry"/>
                </mxCell>
                <mxCell id="IStR7--GfUocLLkQiMT1-1" value="" style="ellipse;whiteSpace=wrap;html=1;aspect=fixed;" parent="1" vertex="1">
                    <mxGeometry x="390" y="30" width="20" height="20" as="geometry"/>
                </mxCell>
                <mxCell id="IStR7--GfUocLLkQiMT1-2" value="Эгейское море" style="text;html=1;strokeColor=none;fillColor=none;align=center;verticalAlign=middle;whiteSpace=wrap;rounded=0;" parent="1" vertex="1">
                    <mxGeometry x="364" y="10" width="100" height="20" as="geometry"/>
                </mxCell>
                <mxCell id="IStR7--GfUocLLkQiMT1-7" value="" style="edgeStyle=orthogonalEdgeStyle;rounded=0;orthogonalLoop=1;jettySize=auto;html=1;" parent="1" source="IStR7--GfUocLLkQiMT1-3" target="IStR7--GfUocLLkQiMT1-6" edge="1">
                    <mxGeometry relative="1" as="geometry"/>
                </mxCell>
                <mxCell id="IStR7--GfUocLLkQiMT1-3" value="" style="ellipse;whiteSpace=wrap;html=1;aspect=fixed;" parent="1" vertex="1">
                    <mxGeometry x="390" y="90" width="20" height="20" as="geometry"/>
                </mxCell>
                <mxCell id="IStR7--GfUocLLkQiMT1-5" value="Мраморное море" style="text;html=1;strokeColor=none;fillColor=none;align=center;verticalAlign=middle;whiteSpace=wrap;rounded=0;" parent="1" vertex="1">
                    <mxGeometry x="410" y="80" width="130" height="20" as="geometry"/>
                </mxCell>
                <mxCell id="IStR7--GfUocLLkQiMT1-10" value="" style="edgeStyle=orthogonalEdgeStyle;rounded=0;orthogonalLoop=1;jettySize=auto;html=1;" parent="1" source="IStR7--GfUocLLkQiMT1-6" target="IStR7--GfUocLLkQiMT1-9" edge="1">
                    <mxGeometry relative="1" as="geometry"/>
                </mxCell>
                <mxCell id="IStR7--GfUocLLkQiMT1-13" value="" style="edgeStyle=orthogonalEdgeStyle;rounded=0;orthogonalLoop=1;jettySize=auto;html=1;" parent="1" source="IStR7--GfUocLLkQiMT1-15" target="IStR7--GfUocLLkQiMT1-14" edge="1">
                    <mxGeometry relative="1" as="geometry">
                        <mxPoint x="280" y="210" as="targetPoint"/>
                    </mxGeometry>
                </mxCell>
                <mxCell id="IStR7--GfUocLLkQiMT1-16" style="edgeStyle=orthogonalEdgeStyle;rounded=0;orthogonalLoop=1;jettySize=auto;html=1;" parent="1" source="IStR7--GfUocLLkQiMT1-6" edge="1">
                    <mxGeometry relative="1" as="geometry">
                        <mxPoint x="250" y="290" as="targetPoint"/>
                    </mxGeometry>
                </mxCell>
                <mxCell id="IStR7--GfUocLLkQiMT1-22" style="edgeStyle=orthogonalEdgeStyle;rounded=0;orthogonalLoop=1;jettySize=auto;html=1;" parent="1" source="IStR7--GfUocLLkQiMT1-6" edge="1">
                    <mxGeometry relative="1" as="geometry">
                        <mxPoint x="520" y="250" as="targetPoint"/>
                    </mxGeometry>
                </mxCell>
                <mxCell id="6" style="edgeStyle=orthogonalEdgeStyle;rounded=0;orthogonalLoop=1;jettySize=auto;html=1;entryX=0.5;entryY=0;entryDx=0;entryDy=0;" parent="1" source="IStR7--GfUocLLkQiMT1-6" target="IStR7--GfUocLLkQiMT1-20" edge="1">
                    <mxGeometry relative="1" as="geometry"/>
                </mxCell>
                <mxCell id="IStR7--GfUocLLkQiMT1-6" value="" style="ellipse;whiteSpace=wrap;html=1;aspect=fixed;" parent="1" vertex="1">
                    <mxGeometry x="390" y="190" width="20" height="20" as="geometry"/>
                </mxCell>
                <mxCell id="IStR7--GfUocLLkQiMT1-8" value="Чёрное море" style="text;html=1;strokeColor=none;fillColor=none;align=center;verticalAlign=middle;whiteSpace=wrap;rounded=0;" parent="1" vertex="1">
                    <mxGeometry x="414" y="150" width="70" height="20" as="geometry"/>
                </mxCell>
                <mxCell id="IStR7--GfUocLLkQiMT1-9" value="" style="ellipse;whiteSpace=wrap;html=1;aspect=fixed;" parent="1" vertex="1">
                    <mxGeometry x="110" y="300" width="20" height="20" as="geometry"/>
                </mxCell>
                <mxCell id="IStR7--GfUocLLkQiMT1-11" value="Дунай" style="text;html=1;strokeColor=none;fillColor=none;align=center;verticalAlign=middle;whiteSpace=wrap;rounded=0;" parent="1" vertex="1">
                    <mxGeometry x="130" y="300" width="40" height="20" as="geometry"/>
                </mxCell>
                <mxCell id="IStR7--GfUocLLkQiMT1-14" value="" style="ellipse;whiteSpace=wrap;html=1;aspect=fixed;" parent="1" vertex="1">
                    <mxGeometry x="180" y="300" width="30" height="30" as="geometry"/>
                </mxCell>
                <mxCell id="IStR7--GfUocLLkQiMT1-17" value="" style="ellipse;whiteSpace=wrap;html=1;aspect=fixed;" parent="1" vertex="1">
                    <mxGeometry x="240" y="290" width="30" height="30" as="geometry"/>
                </mxCell>
                <mxCell id="IStR7--GfUocLLkQiMT1-18" value="Южный Буг" style="text;html=1;strokeColor=none;fillColor=none;align=center;verticalAlign=middle;whiteSpace=wrap;rounded=0;" parent="1" vertex="1">
                    <mxGeometry x="250" y="270" width="40" height="20" as="geometry"/>
                </mxCell>
                <mxCell id="IStR7--GfUocLLkQiMT1-20" value="" style="ellipse;whiteSpace=wrap;html=1;aspect=fixed;" parent="1" vertex="1">
                    <mxGeometry x="380" y="260" width="20" height="20" as="geometry"/>
                </mxCell>
                <mxCell id="IStR7--GfUocLLkQiMT1-21" value="Днепр" style="text;html=1;strokeColor=none;fillColor=none;align=center;verticalAlign=middle;whiteSpace=wrap;rounded=0;" parent="1" vertex="1">
                    <mxGeometry x="410" y="250" width="40" height="20" as="geometry"/>
                </mxCell>
                <mxCell id="IStR7--GfUocLLkQiMT1-27" style="edgeStyle=orthogonalEdgeStyle;rounded=0;orthogonalLoop=1;jettySize=auto;html=1;" parent="1" source="IStR7--GfUocLLkQiMT1-24" target="IStR7--GfUocLLkQiMT1-28" edge="1">
                    <mxGeometry relative="1" as="geometry">
                        <mxPoint x="520" y="350" as="targetPoint"/>
                    </mxGeometry>
                </mxCell>
                <mxCell id="IStR7--GfUocLLkQiMT1-29" style="edgeStyle=orthogonalEdgeStyle;rounded=0;orthogonalLoop=1;jettySize=auto;html=1;" parent="1" source="IStR7--GfUocLLkQiMT1-24" edge="1">
                    <mxGeometry relative="1" as="geometry">
                        <mxPoint x="460" y="340" as="targetPoint"/>
                    </mxGeometry>
                </mxCell>
                <mxCell id="IStR7--GfUocLLkQiMT1-24" value="" style="ellipse;whiteSpace=wrap;html=1;aspect=fixed;" parent="1" vertex="1">
                    <mxGeometry x="510" y="250" width="20" height="20" as="geometry"/>
                </mxCell>
                <mxCell id="IStR7--GfUocLLkQiMT1-26" value="Азовское море" style="text;html=1;strokeColor=none;fillColor=none;align=center;verticalAlign=middle;whiteSpace=wrap;rounded=0;" parent="1" vertex="1">
                    <mxGeometry x="540" y="250" width="40" height="20" as="geometry"/>
                </mxCell>
                <mxCell id="IStR7--GfUocLLkQiMT1-28" value="Кубань" style="text;html=1;strokeColor=none;fillColor=none;align=center;verticalAlign=middle;whiteSpace=wrap;rounded=0;" parent="1" vertex="1">
                    <mxGeometry x="500" y="340" width="40" height="20" as="geometry"/>
                </mxCell>
                <mxCell id="IStR7--GfUocLLkQiMT1-30" value="" style="ellipse;whiteSpace=wrap;html=1;aspect=fixed;" parent="1" vertex="1">
                    <mxGeometry x="530" y="320" width="20" height="20" as="geometry"/>
                </mxCell>
                <mxCell id="IStR7--GfUocLLkQiMT1-31" value="" style="ellipse;whiteSpace=wrap;html=1;aspect=fixed;" parent="1" vertex="1">
                    <mxGeometry x="450" y="340" width="20" height="20" as="geometry"/>
                </mxCell>
                <mxCell id="IStR7--GfUocLLkQiMT1-32" value="Дон" style="text;html=1;strokeColor=none;fillColor=none;align=center;verticalAlign=middle;whiteSpace=wrap;rounded=0;" parent="1" vertex="1">
                    <mxGeometry x="414" y="340" width="40" height="20" as="geometry"/>
                </mxCell>
                <mxCell id="IStR7--GfUocLLkQiMT1-15" value="Днестр" style="text;html=1;strokeColor=none;fillColor=none;align=center;verticalAlign=middle;whiteSpace=wrap;rounded=0;" parent="1" vertex="1">
                    <mxGeometry x="175" y="260" width="40" height="20" as="geometry"/>
                </mxCell>
                <mxCell id="9" value="" style="edgeStyle=orthogonalEdgeStyle;rounded=0;orthogonalLoop=1;jettySize=auto;html=1;" parent="1" source="IStR7--GfUocLLkQiMT1-6" target="IStR7--GfUocLLkQiMT1-15" edge="1">
                    <mxGeometry relative="1" as="geometry">
                        <mxPoint x="195" y="300" as="targetPoint"/>
                        <mxPoint x="390" y="200" as="sourcePoint"/>
                    </mxGeometry>
                </mxCell>
            </root>
        </mxGraphModel>
    </diagram>
</mxfile>